<?xml version="1.0" standalone="yes"?>

<svg version="1.1" viewBox="0.0 0.0 239.45931758530185 100.0" fill="none" stroke="none" stroke-linecap="square" stroke-miterlimit="10" xmlns="http://www.w3.org/2000/svg" xmlns:xlink="http://www.w3.org/1999/xlink"><clipPath id="p.0"><path d="m0 0l239.45932 0l0 100.0l-239.45932 0l0 -100.0z" clip-rule="nonzero"></path></clipPath><g clip-path="url(#p.0)"><path fill="#000000" fill-opacity="0.0" d="m0 0l239.45932 0l0 100.0l-239.45932 0z" fill-rule="nonzero"></path><path fill="#000000" fill-opacity="0.0" d="m0 0l238.89764 0l0 75.02362l-238.89764 0z" fill-rule="nonzero"></path><path fill="#000000" d="m24.772377 55.079998l0 -33.265625l22.453125 0l0 6.296875l-14.96875 0l0 6.515625l13.296875 0l0 6.15625l-13.296875 0l0 8.015625l16.078125 0l0 6.28125l-23.5625 0zm38.15056 -5.71875q1.59375 0 2.625 -0.25q1.03125 -0.265625 1.65625 -0.71875q0.625 -0.46875 0.859375 -1.09375q0.234375 -0.625 0.234375 -1.390625q0 -1.625 -1.53125 -2.703125q-1.53125 -1.078125 -5.28125 -2.328125q-1.625 -0.578125 -3.265625 -1.3125q-1.625 -0.75 -2.921875 -1.875q-1.296875 -1.140625 -2.109375 -2.75q-0.8125 -1.609375 -0.8125 -3.90625q0 -2.3125 0.859375 -4.15625q0.859375 -1.84375 2.4375 -3.140625q1.59375 -1.296875 3.84375 -1.984375q2.265625 -0.703125 5.09375 -0.703125q3.359375 0 5.796875 0.71875q2.453125 0.71875 4.046875 1.578125l-2.171875 5.90625q-1.390625 -0.71875 -3.09375 -1.265625q-1.703125 -0.546875 -4.09375 -0.546875q-2.6875 0 -3.875 0.75q-1.171875 0.734375 -1.171875 2.265625q0 0.90625 0.421875 1.53125q0.4375 0.625 1.234375 1.140625q0.796875 0.5 1.828125 0.90625q1.03125 0.40625 2.28125 0.84375q2.59375 0.953125 4.5 1.890625q1.921875 0.9375 3.1875 2.1875q1.28125 1.25 1.90625 2.9375q0.625 1.671875 0.625 4.0625q0 4.65625 -3.265625 7.234375q-3.265625 2.5625 -9.84375 2.5625q-2.203125 0 -3.984375 -0.265625q-1.765625 -0.265625 -3.140625 -0.640625q-1.359375 -0.390625 -2.34375 -0.8125q-0.984375 -0.4375 -1.65625 -0.828125l2.109375 -5.953125q1.484375 0.8125 3.671875 1.46875q2.1875 0.640625 5.34375 0.640625zm41.139175 5.71875q-0.53125 -1.734375 -1.1875 -3.546875q-0.640625 -1.828125 -1.265625 -3.65625l-12.953125 0q-0.625 1.828125 -1.28125 3.65625q-0.640625 1.8125 -1.171875 3.546875l-7.765625 0q1.875 -5.375 3.546875 -9.9375q1.6875 -4.5625 3.28125 -8.59375q1.609375 -4.03125 3.171875 -7.65625q1.5625 -3.625 3.25 -7.078125l7.140625 0q1.640625 3.453125 3.21875 7.078125q1.59375 3.625 3.1875 7.65625q1.609375 4.03125 3.28125 8.59375q1.6875 4.5625 3.5625 9.9375l-8.015625 0zm-8.96875 -25.734375q-0.25 0.71875 -0.734375 1.96875q-0.46875 1.25 -1.09375 2.890625q-0.625 1.625 -1.375 3.59375q-0.734375 1.96875 -1.5 4.125l9.453125 0q-0.765625 -2.15625 -1.484375 -4.125q-0.71875 -1.96875 -1.375 -3.59375q-0.640625 -1.640625 -1.125 -2.890625q-0.484375 -1.25 -0.765625 -1.96875zm26.920563 12.921875q0 3.3125 1.484375 5.328125q1.5 2.015625 4.421875 2.015625q0.9531174 0 1.7656174 -0.0625q0.828125 -0.078125 1.359375 -0.1875l0 -13.0q-0.671875 -0.4375 -1.765625 -0.71875q-1.078125 -0.296875 -2.1718674 -0.296875q-5.09375 0 -5.09375 6.921875zm16.171867 12.0q-0.953125 0.28125 -2.203125 0.546875q-1.25 0.265625 -2.625 0.453125q-1.359375 0.203125 -2.78125 0.3125q-1.40625 0.125 -2.7031174 0.125q-3.125 0 -5.578125 -0.90625q-2.4375 -0.921875 -4.125 -2.625q-1.671875 -1.703125 -2.5625 -4.125q-0.890625 -2.421875 -0.890625 -5.453125q0 -3.0625 0.765625 -5.53125q0.78125 -2.484375 2.21875 -4.203125q1.4375 -1.734375 3.515625 -2.640625q2.09375 -0.921875 4.78125 -0.921875q1.484375 0 2.6562424 0.296875q1.1875 0.28125 2.390625 0.8125l0 -11.421875l7.140625 -1.15625l0 36.4375zm30.335815 -11.859375q0 2.96875 -0.859375 5.453125q-0.859375 2.46875 -2.5 4.21875q-1.625 1.75 -3.90625 2.71875q-2.28125 0.953125 -5.109375 0.953125q-2.78125 0 -5.0625 -0.953125q-2.28125 -0.96875 -3.921875 -2.71875q-1.625 -1.75 -2.546875 -4.21875q-0.90625 -2.484375 -0.90625 -5.453125q0 -2.96875 0.9375 -5.421875q0.9375 -2.453125 2.59375 -4.171875q1.65625 -1.734375 3.9375 -2.6875q2.28125 -0.96875 4.96875 -0.96875q2.734375 0 5.015625 0.96875q2.28125 0.953125 3.90625 2.6875q1.640625 1.71875 2.546875 4.171875q0.90625 2.453125 0.90625 5.421875zm-7.28125 0q0 -3.3125 -1.328125 -5.203125q-1.3125 -1.90625 -3.765625 -1.90625q-2.453125 0 -3.796875 1.90625q-1.34375 1.890625 -1.34375 5.203125q0 3.3125 1.34375 5.265625q1.34375 1.9375 3.796875 1.9375q2.453125 0 3.765625 -1.9375q1.328125 -1.953125 1.328125 -5.265625zm11.604828 0.046875q0 -2.734375 0.890625 -5.15625q0.890625 -2.421875 2.5625 -4.21875q1.6875 -1.8125 4.078125 -2.859375q2.40625 -1.0625 5.484375 -1.0625q2.015625 0 3.6875 0.359375q1.6875 0.359375 3.265625 1.03125l-1.484375 5.71875q-1.015625 -0.390625 -2.21875 -0.671875q-1.1875 -0.296875 -2.671875 -0.296875q-3.171875 0 -4.734375 1.96875q-1.5625 1.96875 -1.5625 5.1875q0 3.40625 1.46875 5.28125q1.46875 1.875 5.109375 1.875q1.296875 0 2.78125 -0.234375q1.484375 -0.25 2.734375 -0.78125l1.015625 5.859375q-1.25 0.53125 -3.125 0.90625q-1.875 0.390625 -4.125 0.390625q-3.453125 0 -5.953125 -1.03125q-2.5 -1.03125 -4.109375 -2.796875q-1.609375 -1.78125 -2.359375 -4.203125q-0.734375 -2.4375 -0.734375 -5.265625zm32.453156 7.484375q1.96875 0 2.78125 -0.375q0.8125 -0.390625 0.8125 -1.5q0 -0.859375 -1.0625 -1.5q-1.046875 -0.65625 -3.203125 -1.46875q-1.6875 -0.625 -3.0625 -1.296875q-1.359375 -0.671875 -2.328125 -1.609375q-0.953125 -0.9375 -1.484375 -2.234375q-0.515625 -1.296875 -0.515625 -3.109375q0 -3.5625 2.640625 -5.625q2.640625 -2.0625 7.25 -2.0625q2.296875 0 4.40625 0.40625q2.109375 0.40625 3.359375 0.890625l-1.25 5.5625q-1.234375 -0.421875 -2.703125 -0.75q-1.46875 -0.34375 -3.296875 -0.34375q-3.359375 0 -3.359375 1.875q0 0.421875 0.140625 0.765625q0.15625 0.328125 0.578125 0.640625q0.4375 0.3125 1.171875 0.671875q0.75 0.359375 1.90625 0.796875q2.359375 0.859375 3.890625 1.703125q1.53125 0.84375 2.421875 1.828125q0.890625 0.984375 1.25 2.1875q0.359375 1.1875 0.359375 2.78125q0 3.734375 -2.8125 5.65625q-2.796875 1.921875 -7.9375 1.921875q-3.359375 0 -5.59375 -0.578125q-2.234375 -0.578125 -3.09375 -0.953125l1.203125 -5.8125q1.8125 0.71875 3.734375 1.125q1.921875 0.40625 3.796875 0.40625z" fill-rule="nonzero"></path><path fill="#000000" fill-opacity="0.0" d="m33.68504 42.792652l171.52756 0l0 54.330708l-171.52756 0z" fill-rule="nonzero"></path><path fill="#999999" d="m78.70222 80.372025q1.8125 0 2.6875 -0.484375q0.890625 -0.484375 0.890625 -1.53125q0 -1.09375 -0.875 -1.734375q-0.859375 -0.640625 -2.84375 -1.4375q-0.953125 -0.390625 -1.84375 -0.78125q-0.875 -0.40625 -1.515625 -0.9375q-0.640625 -0.546875 -1.03125 -1.3125q-0.375 -0.78125 -0.375 -1.890625q0 -2.21875 1.625 -3.515625q1.640625 -1.296875 4.453125 -1.296875q0.703125 0 1.40625 0.09375q0.71875 0.078125 1.3125 0.1875q0.609375 0.109375 1.078125 0.234375q0.46875 0.125 0.71875 0.234375l-0.546875 2.546875q-0.46875 -0.25 -1.5 -0.515625q-1.015625 -0.28125 -2.46875 -0.28125q-1.234375 0 -2.171875 0.5q-0.921875 0.5 -0.921875 1.546875q0 0.546875 0.203125 0.96875q0.203125 0.40625 0.640625 0.75q0.4375 0.328125 1.078125 0.625q0.640625 0.28125 1.53125 0.609375q1.1875 0.4375 2.109375 0.875q0.9375 0.4375 1.578125 1.015625q0.65625 0.5625 1.015625 1.390625q0.359375 0.8125 0.359375 2.0q0 2.296875 -1.71875 3.484375q-1.71875 1.1875 -4.875 1.1875q-2.21875 0 -3.46875 -0.375q-1.234375 -0.375 -1.6875 -0.5625l0.546875 -2.5625q0.515625 0.203125 1.625 0.59375q1.125 0.375 2.984375 0.375zm9.459534 -6.140625q0 -2.21875 0.640625 -3.859375q0.640625 -1.65625 1.703125 -2.734375q1.0625 -1.09375 2.4375 -1.640625q1.375 -0.546875 2.8125 -0.546875q3.359375 0 5.140625 2.109375q1.796875 2.09375 1.796875 6.375q0 0.1875 0 0.5q0 0.296875 -0.03125 0.5625l-11.390625 0q0.1875 2.59375 1.5 3.9375q1.3125 1.34375 4.109375 1.34375q1.5625 0 2.625 -0.265625q1.078125 -0.28125 1.625 -0.546875l0.421875 2.5q-0.546875 0.296875 -1.90625 0.609375q-1.359375 0.328125 -3.09375 0.328125q-2.171875 0 -3.765625 -0.65625q-1.578125 -0.65625 -2.609375 -1.8125q-1.015625 -1.15625 -1.515625 -2.734375q-0.5 -1.59375 -0.5 -3.46875zm11.4375 -1.640625q0.03125 -2.015625 -1.015625 -3.3125q-1.03125 -1.296875 -2.859375 -1.296875q-1.03125 0 -1.8125 0.40625q-0.78125 0.390625 -1.328125 1.03125q-0.546875 0.640625 -0.859375 1.484375q-0.296875 0.828125 -0.390625 1.6875l8.265625 0zm13.013031 7.78125q1.0625 0 1.875 -0.046875q0.8125 -0.046875 1.359375 -0.1875l0 -4.953125q-0.3125 -0.15625 -1.046875 -0.265625q-0.71875 -0.125 -1.734375 -0.125q-0.671875 0 -1.421875 0.109375q-0.75 0.09375 -1.375 0.40625q-0.625 0.296875 -1.046875 0.828125q-0.40625 0.515625 -0.40625 1.390625q0 1.59375 1.015625 2.21875q1.03125 0.625 2.78125 0.625zm-0.25 -14.921875q1.796875 0 3.015625 0.46875q1.234375 0.46875 1.984375 1.3125q0.765625 0.84375 1.078125 2.015625q0.328125 1.171875 0.328125 2.578125l0 10.40625q-0.390625 0.0625 -1.078125 0.171875q-0.6875 0.109375 -1.5625 0.203125q-0.859375 0.09375 -1.875 0.171875q-1.0 0.09375 -1.984375 0.09375q-1.40625 0 -2.59375 -0.296875q-1.1875 -0.28125 -2.046875 -0.90625q-0.859375 -0.625 -1.34375 -1.640625q-0.484375 -1.03125 -0.484375 -2.46875q0 -1.390625 0.5625 -2.375q0.5625 -0.984375 1.515625 -1.59375q0.96875 -0.609375 2.234375 -0.890625q1.28125 -0.296875 2.703125 -0.296875q0.4375 0 0.921875 0.046875q0.484375 0.046875 0.90625 0.125q0.4375 0.078125 0.75 0.140625q0.328125 0.0625 0.453125 0.09375l0 -0.828125q0 -0.734375 -0.15625 -1.453125q-0.15625 -0.71875 -0.578125 -1.28125q-0.421875 -0.5625 -1.140625 -0.890625q-0.71875 -0.34375 -1.859375 -0.34375q-1.484375 0 -2.59375 0.21875q-1.09375 0.203125 -1.640625 0.421875l-0.34375 -2.453125q0.578125 -0.265625 1.921875 -0.5q1.34375 -0.25 2.90625 -0.25zm17.469673 0.078125q0.390625 0 0.875 0.046875q0.5 0.046875 0.984375 0.125q0.484375 0.078125 0.875 0.15625q0.40625 0.078125 0.59375 0.140625l-0.515625 2.59375q-0.34375 -0.125 -1.171875 -0.296875q-0.8125 -0.1875 -2.09375 -0.1875q-0.828125 0 -1.6406326 0.1875q-0.8125 0.171875 -1.078125 0.234375l0 13.984375l-2.96875 0l0 -15.9375q1.046875 -0.375 2.609375 -0.703125q1.578125 -0.34375 3.5312576 -0.34375zm13.44577 17.375q-2.015625 0 -3.546875 -0.640625q-1.515625 -0.640625 -2.5625 -1.796875q-1.03125 -1.15625 -1.546875 -2.734375q-0.515625 -1.59375 -0.515625 -3.5q0 -1.921875 0.5625 -3.515625q0.5625 -1.609375 1.578125 -2.78125q1.03125 -1.171875 2.515625 -1.828125q1.5 -0.65625 3.3125 -0.65625q1.125 0 2.234375 0.203125q1.125 0.1875 2.15625 0.609375l-0.671875 2.515625q-0.671875 -0.3125 -1.5625 -0.5q-0.875 -0.203125 -1.859375 -0.203125q-2.5 0 -3.828125 1.578125q-1.328125 1.5625 -1.328125 4.578125q0 1.34375 0.296875 2.46875q0.3125 1.109375 0.96875 1.90625q0.65625 0.796875 1.671875 1.234375q1.03125 0.4375 2.5 0.4375q1.1875 0 2.140625 -0.21875q0.96875 -0.234375 1.515625 -0.484375l0.40625 2.484375q-0.25 0.171875 -0.734375 0.3125q-0.46875 0.140625 -1.078125 0.25q-0.609375 0.109375 -1.296875 0.1875q-0.6875 0.09375 -1.328125 0.09375zm7.6456604 -0.390625l0 -24.312496l2.96875 -0.515625l0 8.515621q0.84375 -0.328125 1.78125 -0.5q0.9375 -0.171875 1.875 -0.171875q1.984375 0 3.296875 0.5625q1.3125 0.546875 2.09375 1.5625q0.78125 1.0 1.09375 2.40625q0.328125 1.40625 0.328125 3.109375l0 9.34375l-2.96875 0l0 -8.703125q0 -1.53125 -0.21875 -2.625q-0.203125 -1.09375 -0.6875 -1.765625q-0.484375 -0.671875 -1.28125 -0.96875q-0.796875 -0.3125 -1.984375 -0.3125q-0.46875 0 -0.984375 0.078125q-0.515625 0.0625 -0.984375 0.140625q-0.453125 0.078125 -0.828125 0.171875q-0.359375 0.09375 -0.53125 0.15625l0 13.828125l-2.96875 0z" fill-rule="nonzero"></path></g></svg>

