<?xml version="1.0" encoding="UTF-8" standalone="no"?>
<svg
   xmlns:dc="http://purl.org/dc/elements/1.1/"
   xmlns:cc="http://creativecommons.org/ns#"
   xmlns:rdf="http://www.w3.org/1999/02/22-rdf-syntax-ns#"
   xmlns:svg="http://www.w3.org/2000/svg"
   xmlns="http://www.w3.org/2000/svg"
   xmlns:sodipodi="http://sodipodi.sourceforge.net/DTD/sodipodi-0.dtd"
   xmlns:inkscape="http://www.inkscape.org/namespaces/inkscape"
   version="1.1"
   viewBox="0.0 0.0 239.45931758530185 100.0"
   fill="none"
   stroke="none"
   stroke-linecap="square"
   stroke-miterlimit="10"
   id="svg2"
   inkscape:version="0.91 r13725"
   sodipodi:docname="ESAdocs_search.svg">
  <metadata
     id="metadata23">
    <rdf:RDF>
      <cc:Work
         rdf:about="">
        <dc:format>image/svg+xml</dc:format>
        <dc:type
           rdf:resource="http://purl.org/dc/dcmitype/StillImage" />
      </cc:Work>
    </rdf:RDF>
  </metadata>
  <defs
     id="defs21" />
  <sodipodi:namedview
     pagecolor="#ffffff"
     bordercolor="#666666"
     borderopacity="1"
     objecttolerance="10"
     gridtolerance="10"
     guidetolerance="10"
     inkscape:pageopacity="0"
     inkscape:pageshadow="2"
     inkscape:window-width="640"
     inkscape:window-height="480"
     id="namedview19"
     showgrid="false" />
  <clipPath
     id="p.0">
    <path
       d="m0 0l239.45932 0l0 100.0l-239.45932 0l0 -100.0z"
       clip-rule="nonzero"
       id="path5" />
  </clipPath>
  <g
     clip-path="url(#p.0)"
     id="g7">
    <path
       fill="#000000"
       fill-opacity="0.0"
       d="m0 0l239.45932 0l0 100.0l-239.45932 0z"
       fill-rule="nonzero"
       id="path9" />
    <path
       fill="#000000"
       fill-opacity="0.0"
       d="m0 0l238.89764 0l0 75.02362l-238.89764 0z"
       fill-rule="nonzero"
       id="path11" />
    <path
       fill="#000000"
       d="m24.772377 55.079998l0 -33.265625l22.453125 0l0 6.296875l-14.96875 0l0 6.515625l13.296875 0l0 6.15625l-13.296875 0l0 8.015625l16.078125 0l0 6.28125l-23.5625 0zm38.15056 -5.71875q1.59375 0 2.625 -0.25q1.03125 -0.265625 1.65625 -0.71875q0.625 -0.46875 0.859375 -1.09375q0.234375 -0.625 0.234375 -1.390625q0 -1.625 -1.53125 -2.703125q-1.53125 -1.078125 -5.28125 -2.328125q-1.625 -0.578125 -3.265625 -1.3125q-1.625 -0.75 -2.921875 -1.875q-1.296875 -1.140625 -2.109375 -2.75q-0.8125 -1.609375 -0.8125 -3.90625q0 -2.3125 0.859375 -4.15625q0.859375 -1.84375 2.4375 -3.140625q1.59375 -1.296875 3.84375 -1.984375q2.265625 -0.703125 5.09375 -0.703125q3.359375 0 5.796875 0.71875q2.453125 0.71875 4.046875 1.578125l-2.171875 5.90625q-1.390625 -0.71875 -3.09375 -1.265625q-1.703125 -0.546875 -4.09375 -0.546875q-2.6875 0 -3.875 0.75q-1.171875 0.734375 -1.171875 2.265625q0 0.90625 0.421875 1.53125q0.4375 0.625 1.234375 1.140625q0.796875 0.5 1.828125 0.90625q1.03125 0.40625 2.28125 0.84375q2.59375 0.953125 4.5 1.890625q1.921875 0.9375 3.1875 2.1875q1.28125 1.25 1.90625 2.9375q0.625 1.671875 0.625 4.0625q0 4.65625 -3.265625 7.234375q-3.265625 2.5625 -9.84375 2.5625q-2.203125 0 -3.984375 -0.265625q-1.765625 -0.265625 -3.140625 -0.640625q-1.359375 -0.390625 -2.34375 -0.8125q-0.984375 -0.4375 -1.65625 -0.828125l2.109375 -5.953125q1.484375 0.8125 3.671875 1.46875q2.1875 0.640625 5.34375 0.640625zm41.139175 5.71875q-0.53125 -1.734375 -1.1875 -3.546875q-0.640625 -1.828125 -1.265625 -3.65625l-12.953125 0q-0.625 1.828125 -1.28125 3.65625q-0.640625 1.8125 -1.171875 3.546875l-7.765625 0q1.875 -5.375 3.546875 -9.9375q1.6875 -4.5625 3.28125 -8.59375q1.609375 -4.03125 3.171875 -7.65625q1.5625 -3.625 3.25 -7.078125l7.140625 0q1.640625 3.453125 3.21875 7.078125q1.59375 3.625 3.1875 7.65625q1.609375 4.03125 3.28125 8.59375q1.6875 4.5625 3.5625 9.9375l-8.015625 0zm-8.96875 -25.734375q-0.25 0.71875 -0.734375 1.96875q-0.46875 1.25 -1.09375 2.890625q-0.625 1.625 -1.375 3.59375q-0.734375 1.96875 -1.5 4.125l9.453125 0q-0.765625 -2.15625 -1.484375 -4.125q-0.71875 -1.96875 -1.375 -3.59375q-0.640625 -1.640625 -1.125 -2.890625q-0.484375 -1.25 -0.765625 -1.96875zm26.920563 12.921875q0 3.3125 1.484375 5.328125q1.5 2.015625 4.421875 2.015625q0.9531174 0 1.7656174 -0.0625q0.828125 -0.078125 1.359375 -0.1875l0 -13.0q-0.671875 -0.4375 -1.765625 -0.71875q-1.078125 -0.296875 -2.1718674 -0.296875q-5.09375 0 -5.09375 6.921875zm16.171867 12.0q-0.953125 0.28125 -2.203125 0.546875q-1.25 0.265625 -2.625 0.453125q-1.359375 0.203125 -2.78125 0.3125q-1.40625 0.125 -2.7031174 0.125q-3.125 0 -5.578125 -0.90625q-2.4375 -0.921875 -4.125 -2.625q-1.671875 -1.703125 -2.5625 -4.125q-0.890625 -2.421875 -0.890625 -5.453125q0 -3.0625 0.765625 -5.53125q0.78125 -2.484375 2.21875 -4.203125q1.4375 -1.734375 3.515625 -2.640625q2.09375 -0.921875 4.78125 -0.921875q1.484375 0 2.6562424 0.296875q1.1875 0.28125 2.390625 0.8125l0 -11.421875l7.140625 -1.15625l0 36.4375zm30.335815 -11.859375q0 2.96875 -0.859375 5.453125q-0.859375 2.46875 -2.5 4.21875q-1.625 1.75 -3.90625 2.71875q-2.28125 0.953125 -5.109375 0.953125q-2.78125 0 -5.0625 -0.953125q-2.28125 -0.96875 -3.921875 -2.71875q-1.625 -1.75 -2.546875 -4.21875q-0.90625 -2.484375 -0.90625 -5.453125q0 -2.96875 0.9375 -5.421875q0.9375 -2.453125 2.59375 -4.171875q1.65625 -1.734375 3.9375 -2.6875q2.28125 -0.96875 4.96875 -0.96875q2.734375 0 5.015625 0.96875q2.28125 0.953125 3.90625 2.6875q1.640625 1.71875 2.546875 4.171875q0.90625 2.453125 0.90625 5.421875zm-7.28125 0q0 -3.3125 -1.328125 -5.203125q-1.3125 -1.90625 -3.765625 -1.90625q-2.453125 0 -3.796875 1.90625q-1.34375 1.890625 -1.34375 5.203125q0 3.3125 1.34375 5.265625q1.34375 1.9375 3.796875 1.9375q2.453125 0 3.765625 -1.9375q1.328125 -1.953125 1.328125 -5.265625zm11.604828 0.046875q0 -2.734375 0.890625 -5.15625q0.890625 -2.421875 2.5625 -4.21875q1.6875 -1.8125 4.078125 -2.859375q2.40625 -1.0625 5.484375 -1.0625q2.015625 0 3.6875 0.359375q1.6875 0.359375 3.265625 1.03125l-1.484375 5.71875q-1.015625 -0.390625 -2.21875 -0.671875q-1.1875 -0.296875 -2.671875 -0.296875q-3.171875 0 -4.734375 1.96875q-1.5625 1.96875 -1.5625 5.1875q0 3.40625 1.46875 5.28125q1.46875 1.875 5.109375 1.875q1.296875 0 2.78125 -0.234375q1.484375 -0.25 2.734375 -0.78125l1.015625 5.859375q-1.25 0.53125 -3.125 0.90625q-1.875 0.390625 -4.125 0.390625q-3.453125 0 -5.953125 -1.03125q-2.5 -1.03125 -4.109375 -2.796875q-1.609375 -1.78125 -2.359375 -4.203125q-0.734375 -2.4375 -0.734375 -5.265625zm32.453156 7.484375q1.96875 0 2.78125 -0.375q0.8125 -0.390625 0.8125 -1.5q0 -0.859375 -1.0625 -1.5q-1.046875 -0.65625 -3.203125 -1.46875q-1.6875 -0.625 -3.0625 -1.296875q-1.359375 -0.671875 -2.328125 -1.609375q-0.953125 -0.9375 -1.484375 -2.234375q-0.515625 -1.296875 -0.515625 -3.109375q0 -3.5625 2.640625 -5.625q2.640625 -2.0625 7.25 -2.0625q2.296875 0 4.40625 0.40625q2.109375 0.40625 3.359375 0.890625l-1.25 5.5625q-1.234375 -0.421875 -2.703125 -0.75q-1.46875 -0.34375 -3.296875 -0.34375q-3.359375 0 -3.359375 1.875q0 0.421875 0.140625 0.765625q0.15625 0.328125 0.578125 0.640625q0.4375 0.3125 1.171875 0.671875q0.75 0.359375 1.90625 0.796875q2.359375 0.859375 3.890625 1.703125q1.53125 0.84375 2.421875 1.828125q0.890625 0.984375 1.25 2.1875q0.359375 1.1875 0.359375 2.78125q0 3.734375 -2.8125 5.65625q-2.796875 1.921875 -7.9375 1.921875q-3.359375 0 -5.59375 -0.578125q-2.234375 -0.578125 -3.09375 -0.953125l1.203125 -5.8125q1.8125 0.71875 3.734375 1.125q1.921875 0.40625 3.796875 0.40625z"
       fill-rule="nonzero"
       id="path13" />
    <path
       fill="#000000"
       fill-opacity="0.0"
       d="m33.68504 42.792652l171.52756 0l0 54.330708l-171.52756 0z"
       fill-rule="nonzero"
       id="path15" />
    <path
       d="m 77.157321,81.144474 q 1.8125,0 2.6875,-0.484375 0.890625,-0.484375 0.890625,-1.53125 0,-1.09375 -0.875,-1.734375 -0.859375,-0.640625 -2.84375,-1.4375 -0.953125,-0.390625 -1.84375,-0.78125 -0.875,-0.40625 -1.515625,-0.9375 -0.640625,-0.546875 -1.03125,-1.3125 -0.375,-0.78125 -0.375,-1.890625 0,-2.21875 1.625,-3.515625 1.640625,-1.296875 4.453125,-1.296875 0.703125,0 1.40625,0.09375 0.71875,0.07813 1.3125,0.1875 0.609375,0.109375 1.078125,0.234375 0.46875,0.125 0.71875,0.234375 l -0.546875,2.546875 q -0.46875,-0.25 -1.5,-0.515625 -1.015625,-0.28125 -2.46875,-0.28125 -1.234375,0 -2.171875,0.5 -0.921875,0.5 -0.921875,1.546875 0,0.546875 0.203125,0.96875 0.203125,0.40625 0.640625,0.75 0.4375,0.328125 1.078125,0.625 0.640625,0.28125 1.53125,0.609375 1.1875,0.4375 2.109375,0.875 0.9375,0.4375 1.578125,1.015625 0.65625,0.5625 1.015625,1.390625 0.359375,0.8125 0.359375,2 0,2.296875 -1.71875,3.484375 -1.71875,1.1875 -4.875,1.1875 -2.21875,0 -3.46875,-0.375 -1.234375,-0.375 -1.6875,-0.5625 l 0.546875,-2.5625 q 0.515625,0.203125 1.625,0.59375 1.125,0.375 2.984375,0.375 z m 9.459534,-6.140625 q 0,-2.21875 0.640625,-3.859375 0.640625,-1.65625 1.703125,-2.734375 1.0625,-1.09375 2.4375,-1.640625 1.375,-0.546875 2.8125,-0.546875 3.359375,0 5.140625,2.109375 1.79688,2.09375 1.79688,6.375 0,0.1875 0,0.5 0,0.296875 -0.0312,0.5625 l -11.39063,0 q 0.1875,2.59375 1.5,3.9375 1.3125,1.34375 4.109375,1.34375 1.5625,0 2.625,-0.265625 1.078125,-0.28125 1.625,-0.546875 l 0.421875,2.5 q -0.546875,0.296875 -1.90625,0.609375 -1.359375,0.328125 -3.09375,0.328125 -2.171875,0 -3.765625,-0.65625 -1.578125,-0.65625 -2.609375,-1.8125 -1.015625,-1.15625 -1.515625,-2.734375 -0.5,-1.59375 -0.5,-3.46875 z m 11.4375,-1.640625 q 0.03125,-2.015625 -1.015625,-3.3125 -1.03125,-1.296875 -2.859375,-1.296875 -1.03125,0 -1.8125,0.40625 -0.78125,0.390625 -1.328125,1.03125 -0.546875,0.640625 -0.859375,1.484375 -0.296875,0.828125 -0.390625,1.6875 l 8.265625,0 z m 13.013035,7.78125 q 1.0625,0 1.875,-0.04687 0.8125,-0.04687 1.35937,-0.1875 l 0,-4.953125 q -0.3125,-0.15625 -1.04687,-0.265625 -0.71875,-0.125 -1.73438,-0.125 -0.67187,0 -1.42187,0.109375 -0.75,0.09375 -1.375,0.40625 -0.625,0.296875 -1.04688,0.828125 -0.40625,0.515625 -0.40625,1.390625 0,1.59375 1.01563,2.21875 1.03125,0.625 2.78125,0.625 z m -0.25,-14.921875 q 1.79687,0 3.01562,0.46875 1.23438,0.46875 1.98438,1.3125 0.76562,0.84375 1.07812,2.015625 0.32813,1.171875 0.32813,2.578125 l 0,10.40625 q -0.39063,0.0625 -1.07813,0.171875 -0.6875,0.109375 -1.5625,0.203125 -0.85937,0.09375 -1.875,0.171875 -1,0.09375 -1.98437,0.09375 -1.40625,0 -2.59375,-0.296875 -1.1875,-0.28125 -2.04688,-0.90625 -0.85937,-0.625 -1.34375,-1.640625 -0.48437,-1.03125 -0.48437,-2.46875 0,-1.390625 0.5625,-2.375 0.5625,-0.984375 1.51562,-1.59375 0.96875,-0.609375 2.23438,-0.890625 1.28125,-0.296875 2.70312,-0.296875 0.4375,0 0.92188,0.04687 0.48437,0.04687 0.90625,0.125 0.4375,0.07813 0.75,0.140625 0.32812,0.0625 0.45312,0.09375 l 0,-0.828125 q 0,-0.734375 -0.15625,-1.453125 -0.15625,-0.71875 -0.57812,-1.28125 -0.42188,-0.5625 -1.14063,-0.890625 -0.71875,-0.34375 -1.85937,-0.34375 -1.48438,0 -2.59375,0.21875 -1.09375,0.203125 -1.64063,0.421875 l -0.34375,-2.453125 q 0.57813,-0.265625 1.92188,-0.5 1.34375,-0.25 2.90625,-0.25 z m 17.46967,0.07813 q 0.39062,0 0.875,0.04687 0.5,0.04687 0.98437,0.125 0.48438,0.07813 0.875,0.15625 0.40625,0.07813 0.59375,0.140625 l -0.51562,2.59375 q -0.34375,-0.125 -1.17188,-0.296875 -0.8125,-0.1875 -2.09375,-0.1875 -0.82812,0 -1.64063,0.1875 -0.8125,0.171875 -1.07812,0.234375 l 0,13.984375 -2.96875,0 0,-15.9375 q 1.04687,-0.375 2.60937,-0.703125 1.57813,-0.34375 3.53126,-0.34375 z m 13.44577,17.375 q -2.01563,0 -3.54688,-0.640625 -1.51562,-0.640625 -2.5625,-1.796875 -1.03125,-1.15625 -1.54687,-2.734375 -0.51563,-1.59375 -0.51563,-3.5 0,-1.921875 0.5625,-3.515625 0.5625,-1.609375 1.57813,-2.78125 1.03125,-1.171875 2.51562,-1.828125 1.5,-0.65625 3.3125,-0.65625 1.125,0 2.23438,0.203125 1.125,0.1875 2.15625,0.609375 l -0.67188,2.515625 q -0.67187,-0.3125 -1.5625,-0.5 -0.875,-0.203125 -1.85937,-0.203125 -2.5,0 -3.82813,1.578125 -1.32812,1.5625 -1.32812,4.578125 0,1.34375 0.29687,2.46875 0.3125,1.109375 0.96875,1.90625 0.65625,0.796875 1.67188,1.234375 1.03125,0.4375 2.5,0.4375 1.1875,0 2.14062,-0.21875 0.96875,-0.234375 1.51563,-0.484375 l 0.40625,2.484375 q -0.25,0.171875 -0.73438,0.3125 -0.46875,0.140625 -1.07812,0.25 -0.60938,0.109375 -1.29688,0.1875 -0.6875,0.09375 -1.32812,0.09375 z m 7.64566,-0.390625 0,-24.312496 2.96875,-0.515625 0,8.515621 q 0.84375,-0.328125 1.78125,-0.5 0.9375,-0.171875 1.875,-0.171875 1.98437,0 3.29687,0.5625 1.3125,0.546875 2.09375,1.5625 0.78125,1 1.09375,2.40625 0.32813,1.40625 0.32813,3.109375 l 0,9.34375 -2.96875,0 0,-8.703125 q 0,-1.53125 -0.21875,-2.625 -0.20313,-1.09375 -0.6875,-1.765625 -0.48438,-0.671875 -1.28125,-0.96875 -0.79688,-0.3125 -1.98438,-0.3125 -0.46875,0 -0.98437,0.07813 -0.51563,0.0625 -0.98438,0.140625 -0.45312,0.07813 -0.82812,0.171875 -0.35938,0.09375 -0.53125,0.15625 l 0,13.828125 -2.96875,0 z"
       id="path17"
       inkscape:connector-curvature="0"
       style="fill:#999999;fill-rule:nonzero" />
  </g>
</svg>
