<?xml version="1.0" standalone="yes"?>

<svg version="1.1" viewBox="0.0 0.0 297.0 125.0" fill="none" stroke="none" stroke-linecap="square" stroke-miterlimit="10" xmlns="http://www.w3.org/2000/svg" xmlns:xlink="http://www.w3.org/1999/xlink"><clipPath id="p.0"><path d="m0 0l297.0 0l0 125.0l-297.0 0l0 -125.0z" clip-rule="nonzero"></path></clipPath><g clip-path="url(#p.0)"><path fill="#000000" fill-opacity="0.0" d="m0 0l297.0 0l0 125.0l-297.0 0z" fill-rule="nonzero"></path><path fill="#000000" fill-opacity="0.0" d="m0 0l296.0 0l0 75.02362l-296.0 0z" fill-rule="nonzero"></path><path fill="#000000" d="m21.765228 70.44l0 -44.359375l29.953125 0l0 8.390625l-19.96875 0l0 8.703125l17.71875 0l0 8.1875l-17.71875 0l0 10.6875l21.4375 0l0 8.390625l-31.421875 0zm50.877686 -7.609375q2.109375 0 3.484375 -0.34375q1.375 -0.359375 2.203125 -0.96875q0.84375 -0.609375 1.15625 -1.4375q0.328125 -0.84375 0.328125 -1.859375q0 -2.1875 -2.0625 -3.625q-2.046875 -1.4375 -7.03125 -3.09375q-2.171875 -0.78125 -4.359375 -1.765625q-2.171875 -1.0 -3.90625 -2.5q-1.71875 -1.5 -2.8125 -3.640625q-1.078125 -2.140625 -1.078125 -5.21875q0 -3.078125 1.140625 -5.53125q1.15625 -2.46875 3.265625 -4.1875q2.109375 -1.734375 5.125 -2.65625q3.015625 -0.9375 6.78125 -0.9375q4.484375 0 7.75 0.96875q3.265625 0.953125 5.375 2.109375l-2.875 7.859375q-1.859375 -0.953125 -4.140625 -1.6875q-2.265625 -0.734375 -5.46875 -0.734375q-3.578125 0 -5.15625 1.0q-1.5625 0.984375 -1.5625 3.03125q0 1.21875 0.578125 2.046875q0.578125 0.828125 1.625 1.5q1.0625 0.671875 2.4375 1.21875q1.375 0.546875 3.046875 1.125q3.453125 1.28125 6.0 2.53125q2.5625 1.234375 4.265625 2.90625q1.703125 1.65625 2.53125 3.90625q0.828125 2.234375 0.828125 5.4375q0 6.203125 -4.359375 9.625q-4.34375 3.421875 -13.109375 3.421875q-2.953125 0 -5.328125 -0.359375q-2.359375 -0.34375 -4.1875 -0.84375q-1.8125 -0.515625 -3.125 -1.09375q-1.3125 -0.578125 -2.203125 -1.09375l2.8125 -7.9375q1.984375 1.09375 4.890625 1.96875q2.90625 0.859375 7.140625 0.859375zm54.84169 7.609375q-0.703125 -2.296875 -1.5625 -4.734375q-0.859375 -2.4375 -1.703125 -4.859375l-17.28125 0q-0.828125 2.421875 -1.6875 4.859375q-0.859375 2.4375 -1.5625 4.734375l-10.375 0q2.5 -7.171875 4.734375 -13.25q2.234375 -6.078125 4.375 -11.453125q2.15625 -5.375 4.234375 -10.203125q2.078125 -4.84375 4.3125 -9.453125l9.546875 0q2.171875 4.609375 4.28125 9.453125q2.109375 4.828125 4.25 10.203125q2.15625 5.375 4.390625 11.453125q2.25 6.078125 4.734375 13.25l-10.6875 0zm-11.96875 -34.296875q-0.3125 0.953125 -0.953125 2.625q-0.640625 1.65625 -1.484375 3.84375q-0.828125 2.171875 -1.828125 4.796875q-0.984375 2.609375 -2.0 5.5l12.609375 0q-1.03125 -2.890625 -2.0 -5.5q-0.953125 -2.625 -1.8125 -4.796875q-0.859375 -2.1875 -1.5 -3.84375q-0.640625 -1.671875 -1.03125 -2.625zm35.909546 17.203125q0 4.421875 1.984375 7.109375q1.984375 2.6875 5.890625 2.6875q1.28125 0 2.359375 -0.09375q1.09375 -0.09375 1.796875 -0.21875l0 -17.34375q-0.890625 -0.578125 -2.34375 -0.953125q-1.4375 -0.390625 -2.90625 -0.390625q-6.78125 0 -6.78125 9.203125zm21.5625 16.0q-1.28125 0.390625 -2.953125 0.75q-1.65625 0.34375 -3.484375 0.59375q-1.8125 0.265625 -3.703125 0.421875q-1.890625 0.15625 -3.609375 0.15625q-4.171875 0 -7.4375 -1.203125q-3.25 -1.21875 -5.5 -3.484375q-2.234375 -2.28125 -3.421875 -5.515625q-1.1875 -3.234375 -1.1875 -7.265625q0 -4.09375 1.015625 -7.390625q1.03125 -3.296875 2.953125 -5.59375q1.921875 -2.3125 4.703125 -3.53125q2.796875 -1.21875 6.375 -1.21875q1.984375 0 3.546875 0.390625q1.578125 0.390625 3.171875 1.09375l0 -15.234375l9.53125 -1.53125l0 48.5625zm40.452805 -15.796875q0 3.96875 -1.15625 7.265625q-1.15625 3.28125 -3.328125 5.625q-2.171875 2.34375 -5.21875 3.625q-3.03125 1.265625 -6.8125 1.265625q-3.703125 0 -6.75 -1.265625q-3.046875 -1.28125 -5.21875 -3.625q-2.171875 -2.34375 -3.390625 -5.625q-1.21875 -3.296875 -1.21875 -7.265625q0 -3.96875 1.25 -7.234375q1.25 -3.265625 3.453125 -5.5625q2.21875 -2.3125 5.25 -3.59375q3.046875 -1.28125 6.625 -1.28125q3.65625 0 6.6875 1.28125q3.046875 1.28125 5.21875 3.59375q2.171875 2.296875 3.390625 5.5625q1.21875 3.265625 1.21875 7.234375zm-9.734375 0q0 -4.421875 -1.765625 -6.953125q-1.75 -2.53125 -5.015625 -2.53125q-3.265625 0 -5.0625 2.53125q-1.78125 2.53125 -1.78125 6.953125q0 4.40625 1.78125 7.0q1.796875 2.59375 5.0625 2.59375q3.265625 0 5.015625 -2.59375q1.765625 -2.59375 1.765625 -7.0zm15.488556 0.0625q0 -3.65625 1.1875 -6.875q1.1875 -3.234375 3.421875 -5.640625q2.25 -2.40625 5.4375 -3.8125q3.203125 -1.40625 7.296875 -1.40625q2.6875 0 4.921875 0.484375q2.25 0.484375 4.359375 1.375l-1.984375 7.609375q-1.34375 -0.5 -2.953125 -0.890625q-1.59375 -0.390625 -3.578125 -0.390625q-4.21875 0 -6.296875 2.625q-2.078125 2.625 -2.078125 6.921875q0 4.546875 1.953125 7.046875q1.953125 2.484375 6.8125 2.484375q1.734375 0 3.71875 -0.3125q1.984375 -0.328125 3.640625 -1.03125l1.34375 7.8125q-1.65625 0.703125 -4.15625 1.203125q-2.5 0.515625 -5.5 0.515625q-4.609375 0 -7.9375 -1.375q-3.328125 -1.375 -5.484375 -3.734375q-2.140625 -2.375 -3.140625 -5.609375q-0.984375 -3.234375 -0.984375 -7.0zm43.265564 9.984375q2.625 0 3.703125 -0.515625q1.09375 -0.515625 1.09375 -1.984375q0 -1.15625 -1.40625 -2.015625q-1.40625 -0.859375 -4.28125 -1.953125q-2.234375 -0.828125 -4.0625 -1.71875q-1.828125 -0.90625 -3.109375 -2.15625q-1.28125 -1.25 -1.984375 -2.96875q-0.703125 -1.734375 -0.703125 -4.15625q0 -4.75 3.515625 -7.5q3.53125 -2.75 9.671875 -2.75q3.0625 0 5.875 0.546875q2.828125 0.546875 4.484375 1.1875l-1.65625 7.421875q-1.671875 -0.578125 -3.625 -1.015625q-1.9375 -0.453125 -4.375 -0.453125q-4.484375 0 -4.484375 2.484375q0 0.578125 0.1875 1.03125q0.203125 0.453125 0.78125 0.875q0.578125 0.40625 1.5625 0.890625q0.984375 0.46875 2.53125 1.046875q3.125 1.15625 5.171875 2.28125q2.0625 1.109375 3.234375 2.421875q1.1875 1.3125 1.671875 2.921875q0.484375 1.59375 0.484375 3.703125q0 5.0 -3.75 7.5625q-3.75 2.546875 -10.59375 2.546875q-4.484375 0 -7.46875 -0.765625q-2.96875 -0.765625 -4.109375 -1.28125l1.59375 -7.734375q2.4375 0.953125 4.984375 1.5q2.5625 0.546875 5.0625 0.546875z" fill-rule="nonzero"></path><path fill="#000000" fill-opacity="0.0" d="m50.34646 54.8084l195.3071 0l0 79.2126l-195.3071 0z" fill-rule="nonzero"></path><path fill="#999999" d="m86.86449 106.66965q2.75 0 4.0625 -0.71875q1.328125 -0.71875 1.328125 -2.296875q0 -1.640625 -1.296875 -2.59375q-1.296875 -0.96875 -4.28125 -2.15625q-1.4375 -0.578125 -2.765625 -1.171875q-1.3125 -0.609375 -2.28125 -1.421875q-0.953125 -0.828125 -1.53125 -1.96875q-0.578125 -1.15625 -0.578125 -2.84375q0 -3.3125 2.453125 -5.25q2.453125 -1.9375 6.671875 -1.9375q1.0625 0 2.109375 0.125q1.0625 0.109375 1.96875 0.28125q0.921875 0.15625 1.609375 0.359375q0.703125 0.1875 1.078125 0.328125l-0.8125 3.84375q-0.71875 -0.390625 -2.265625 -0.796875q-1.53125 -0.40625 -3.6875 -0.40625q-1.875 0 -3.265625 0.75q-1.390625 0.734375 -1.390625 2.328125q0 0.8125 0.3125 1.4375q0.3125 0.625 0.953125 1.125q0.65625 0.5 1.609375 0.9375q0.96875 0.4375 2.3125 0.90625q1.78125 0.671875 3.171875 1.328125q1.390625 0.640625 2.375 1.515625q0.984375 0.859375 1.5 2.09375q0.53125 1.21875 0.53125 2.984375q0 3.46875 -2.5625 5.25q-2.5625 1.765625 -7.328125 1.765625q-3.296875 0 -5.171875 -0.5625q-1.875 -0.546875 -2.546875 -0.828125l0.8125 -3.84375q0.765625 0.28125 2.4375 0.859375q1.6875 0.578125 4.46875 0.578125zm14.220551 -9.21875q0 -3.3125 0.953125 -5.78125q0.96875 -2.46875 2.546875 -4.09375q1.578125 -1.640625 3.640625 -2.453125q2.0625 -0.8125 4.234375 -0.8125q5.03125 0 7.71875 3.140625q2.6875 3.140625 2.6875 9.578125q0 0.28125 0 0.75q0 0.453125 -0.046875 0.828125l-17.078125 0q0.28125 3.890625 2.25 5.90625q1.96875 2.015625 6.140625 2.015625q2.359375 0 3.96875 -0.40625q1.609375 -0.40625 2.421875 -0.796875l0.625 3.75q-0.8125 0.421875 -2.859375 0.90625q-2.046875 0.484375 -4.625 0.484375q-3.265625 0 -5.640625 -0.984375q-2.375 -0.984375 -3.921875 -2.703125q-1.53125 -1.734375 -2.28125 -4.109375q-0.734375 -2.375 -0.734375 -5.21875zm17.125 -2.4375q0.046875 -3.03125 -1.515625 -4.96875q-1.546875 -1.953125 -4.28125 -1.953125q-1.546875 0 -2.71875 0.609375q-1.171875 0.59375 -2.0 1.5625q-0.8125 0.953125 -1.265625 2.203125q-0.453125 1.25 -0.59375 2.546875l12.375 0zm19.535187 11.65625q1.59375 0 2.8125 -0.0625q1.21875 -0.078125 2.046875 -0.265625l0 -7.4375q-0.484375 -0.25 -1.5625 -0.40625q-1.078125 -0.171875 -2.625 -0.171875q-1.0 0 -2.125 0.140625q-1.125 0.140625 -2.0625 0.59375q-0.9375 0.453125 -1.5625 1.25q-0.625 0.796875 -0.625 2.09375q0 2.390625 1.53125 3.328125q1.53125 0.9375 4.171875 0.9375zm-0.375 -22.359375q2.6875 0 4.53125 0.703125q1.84375 0.6875 2.96875 1.96875q1.140625 1.265625 1.609375 3.015625q0.484375 1.75 0.484375 3.859375l0 15.59375q-0.578125 0.09375 -1.609375 0.265625q-1.03125 0.171875 -2.328125 0.3125q-1.296875 0.140625 -2.8125 0.265625q-1.5 0.125 -2.984375 0.125q-2.125 0 -3.90625 -0.4375q-1.765625 -0.4375 -3.0625 -1.359375q-1.296875 -0.9375 -2.015625 -2.46875q-0.71875 -1.546875 -0.71875 -3.703125q0 -2.0625 0.84375 -3.546875q0.84375 -1.5 2.28125 -2.40625q1.4375 -0.90625 3.359375 -1.34375q1.921875 -0.4375 4.03125 -0.4375q0.671875 0 1.390625 0.078125q0.71875 0.0625 1.359375 0.1875q0.65625 0.125 1.125 0.21875q0.484375 0.09375 0.6875 0.140625l0 -1.25q0 -1.09375 -0.25 -2.171875q-0.234375 -1.09375 -0.859375 -1.921875q-0.625 -0.84375 -1.703125 -1.34375q-1.078125 -0.515625 -2.8125 -0.515625q-2.203125 0 -3.859375 0.3125q-1.65625 0.3125 -2.46875 0.65625l-0.53125 -3.703125q0.859375 -0.375 2.875 -0.734375q2.015625 -0.359375 4.375 -0.359375zm26.212296 0.09375q0.5625 0 1.3125 0.078125q0.75 0.0625 1.46875 0.1875q0.71875 0.109375 1.3125 0.234375q0.609375 0.125 0.890625 0.21875l-0.765625 3.890625q-0.53125 -0.203125 -1.765625 -0.453125q-1.21875 -0.265625 -3.125 -0.265625q-1.25 0 -2.484375 0.265625q-1.21875 0.25 -1.609375 0.359375l0 20.96875l-4.453125 0l0 -23.90625q1.578125 -0.578125 3.921875 -1.078125q2.359375 -0.5 5.296875 -0.5zm20.15303 26.0625q-3.03125 0 -5.3125 -0.953125q-2.265625 -0.96875 -3.828125 -2.6875q-1.5625 -1.734375 -2.328125 -4.109375q-0.765625 -2.375 -0.765625 -5.265625q0 -2.875 0.828125 -5.265625q0.84375 -2.40625 2.375 -4.15625q1.546875 -1.75 3.765625 -2.734375q2.234375 -0.984375 4.984375 -0.984375q1.671875 0 3.34375 0.28125q1.6875 0.28125 3.21875 0.90625l-1.0 3.796875q-1.015625 -0.484375 -2.34375 -0.765625q-1.3125 -0.28125 -2.796875 -0.28125q-3.734375 0 -5.734375 2.359375q-1.984375 2.34375 -1.984375 6.84375q0 2.015625 0.453125 3.703125q0.453125 1.671875 1.4375 2.875q0.984375 1.203125 2.515625 1.859375q1.546875 0.640625 3.75 0.640625q1.78125 0 3.21875 -0.328125q1.4375 -0.34375 2.25 -0.734375l0.625 3.75q-0.390625 0.234375 -1.109375 0.453125q-0.71875 0.21875 -1.625 0.390625q-0.90625 0.171875 -1.953125 0.28125q-1.03125 0.125 -1.984375 0.125zm11.476288 -0.578125l0 -36.484375l4.453125 -0.765625l0 12.765625q1.25 -0.46875 2.671875 -0.734375q1.421875 -0.265625 2.8125 -0.265625q2.96875 0 4.9375 0.84375q1.96875 0.828125 3.140625 2.34375q1.1875 1.515625 1.65625 3.625q0.484375 2.109375 0.484375 4.65625l0 14.015625l-4.46875 0l0 -13.0625q0 -2.296875 -0.3125 -3.921875q-0.3125 -1.640625 -1.03125 -2.640625q-0.71875 -1.015625 -1.921875 -1.46875q-1.1875 -0.453125 -2.96875 -0.453125q-0.71875 0 -1.484375 0.09375q-0.765625 0.09375 -1.46875 0.21875q-0.703125 0.109375 -1.25 0.265625q-0.546875 0.140625 -0.796875 0.234375l0 20.734375l-4.453125 0z" fill-rule="nonzero"></path></g></svg>

